HIERARCHY
ROOT Hips
{
    OFFSET   0.000000   0.000000   0.000000
    CHANNELS 6 Xposition Yposition Zposition Zrotation Xrotation Yrotation
    JOINT Chest
    {
        OFFSET   0.000000   8.007230   0.000000
        CHANNELS 3 Zrotation Xrotation Yrotation
        JOINT Chest2
        {
            OFFSET   0.000000  22.077100   0.000000
            CHANNELS 3 Zrotation Xrotation Yrotation
            JOINT Neck
            {
                OFFSET   0.000000  23.254800  -0.000021
                CHANNELS 3 Zrotation Xrotation Yrotation
                JOINT Head
                {
                    OFFSET   0.000000  14.370000   1.956610
                    CHANNELS 3 Zrotation Xrotation Yrotation
                    End Site
                    {
                        OFFSET   0.000000  19.566000   0.000000
                    }
                }
            }
            JOINT LeftCollar
            {
                OFFSET   3.911900  19.017000  -0.467063
                CHANNELS 3 Zrotation Xrotation Yrotation
                JOINT LeftShoulder
                {
                    OFFSET  10.383700   0.000000   0.000000
                    CHANNELS 3 Zrotation Xrotation Yrotation
                    JOINT LeftElbow
                    {
                        OFFSET  26.662100   0.001529   0.000325
                        CHANNELS 3 Zrotation Xrotation Yrotation
                        JOINT LeftWrist
                        {
                            OFFSET  28.869000  -0.000011  -0.000096
                            CHANNELS 3 Zrotation Xrotation Yrotation
                            JOINT LeftFinger0
                            {
                                OFFSET   2.044650  -2.323460   3.252850
                                CHANNELS 3 Zrotation Xrotation Yrotation
                                JOINT LeftFinger01
                                {
                                    OFFSET   3.088130   0.000000   0.000000
                                    CHANNELS 3 Zrotation Xrotation Yrotation
                                    JOINT LeftFinger02
                                    {
                                        OFFSET   2.639460   0.000000   0.000000
                                        CHANNELS 3 Zrotation Xrotation Yrotation
                                        End Site
                                        {
                                            OFFSET   2.582190   0.000000   0.000000
                                        }
                                    }
                                }
                            }
                            JOINT LeftFinger1
                            {
                                OFFSET   8.364480   0.000000   3.252850
                                CHANNELS 3 Zrotation Xrotation Yrotation
                                JOINT LeftFinger11
                                {
                                    OFFSET   4.646930   0.000000   0.000000
                                    CHANNELS 3 Zrotation Xrotation Yrotation
                                    JOINT LeftFinger12
                                    {
                                        OFFSET   2.323460   0.000000   0.000000
                                        CHANNELS 3 Zrotation Xrotation Yrotation
                                        End Site
                                        {
                                            OFFSET   2.273050   0.000000   0.000000
                                        }
                                    }
                                }
                            }
                            JOINT LeftFinger2
                            {
                                OFFSET   8.364480   0.000016   1.078090
                                CHANNELS 3 Zrotation Xrotation Yrotation
                                JOINT LeftFinger21
                                {
                                    OFFSET   5.111620   0.000000   0.000000
                                    CHANNELS 3 Zrotation Xrotation Yrotation
                                    JOINT LeftFinger22
                                    {
                                        OFFSET   2.788160   0.000017   0.000000
                                        CHANNELS 3 Zrotation Xrotation Yrotation
                                        End Site
                                        {
                                            OFFSET   2.727660   0.000000   0.000000
                                        }
                                    }
                                }
                            }
                            JOINT LeftFinger3
                            {
                                OFFSET   7.899780   0.000015  -1.078090
                                CHANNELS 3 Zrotation Xrotation Yrotation
                                JOINT LeftFinger31
                                {
                                    OFFSET   4.646920   0.000000   0.000000
                                    CHANNELS 3 Zrotation Xrotation Yrotation
                                    JOINT LeftFinger32
                                    {
                                        OFFSET   2.323470   0.000000   0.000000
                                        CHANNELS 3 Zrotation Xrotation Yrotation
                                        End Site
                                        {
                                            OFFSET   2.273050   0.000000   0.000000
                                        }
                                    }
                                }
                            }
                            JOINT LeftFinger4
                            {
                                OFFSET   7.435090   0.000000  -3.252850
                                CHANNELS 3 Zrotation Xrotation Yrotation
                                JOINT LeftFinger41
                                {
                                    OFFSET   3.717550   0.000000   0.000000
                                    CHANNELS 3 Zrotation Xrotation Yrotation
                                    JOINT LeftFinger42
                                    {
                                        OFFSET   1.858760   0.000000   0.000000
                                        CHANNELS 3 Zrotation Xrotation Yrotation
                                        End Site
                                        {
                                            OFFSET   1.818440   0.000000   0.000000
                                        }
                                    }
                                }
                            }
                        }
                    }
                }
            }
            JOINT RightCollar
            {
                OFFSET  -3.911900  19.017000  -0.467062
                CHANNELS 3 Zrotation Xrotation Yrotation
                JOINT RightShoulder
                {
                    OFFSET -10.383700   0.000015   0.000000
                    CHANNELS 3 Zrotation Xrotation Yrotation
                    JOINT RightElbow
                    {
                        OFFSET -26.662100   0.001341   0.000385
                        CHANNELS 3 Zrotation Xrotation Yrotation
                        JOINT RightWrist
                        {
                            OFFSET -28.869000   0.000025  -0.000080
                            CHANNELS 3 Zrotation Xrotation Yrotation
                            JOINT RightFinger0
                            {
                                OFFSET  -2.044650  -2.323490   3.252850
                                CHANNELS 3 Zrotation Xrotation Yrotation
                                JOINT RightFinger01
                                {
                                    OFFSET  -3.088130   0.000000   0.000000
                                    CHANNELS 3 Zrotation Xrotation Yrotation
                                    JOINT RightFinger02
                                    {
                                        OFFSET  -2.639460   0.000000   0.000000
                                        CHANNELS 3 Zrotation Xrotation Yrotation
                                        End Site
                                        {
                                            OFFSET  -2.582190   0.000000   0.000000
                                        }
                                    }
                                }
                            }
                            JOINT RightFinger1
                            {
                                OFFSET  -8.364480   0.000000   3.252850
                                CHANNELS 3 Zrotation Xrotation Yrotation
                                JOINT RightFinger11
                                {
                                    OFFSET  -4.646930   0.000000   0.000000
                                    CHANNELS 3 Zrotation Xrotation Yrotation
                                    JOINT RightFinger12
                                    {
                                        OFFSET  -2.323470   0.000000   0.000000
                                        CHANNELS 3 Zrotation Xrotation Yrotation
                                        End Site
                                        {
                                            OFFSET  -2.273050   0.000000   0.000000
                                        }
                                    }
                                }
                            }
                            JOINT RightFinger2
                            {
                                OFFSET  -8.364480   0.000000   1.078090
                                CHANNELS 3 Zrotation Xrotation Yrotation
                                JOINT RightFinger21
                                {
                                    OFFSET  -5.111610   0.000000   0.000000
                                    CHANNELS 3 Zrotation Xrotation Yrotation
                                    JOINT RightFinger22
                                    {
                                        OFFSET  -2.788160   0.000000   0.000000
                                        CHANNELS 3 Zrotation Xrotation Yrotation
                                        End Site
                                        {
                                            OFFSET  -2.727660   0.000000   0.000000
                                        }
                                    }
                                }
                            }
                            JOINT RightFinger3
                            {
                                OFFSET  -7.899780   0.000000  -1.078090
                                CHANNELS 3 Zrotation Xrotation Yrotation
                                JOINT RightFinger31
                                {
                                    OFFSET  -4.646920   0.000000   0.000000
                                    CHANNELS 3 Zrotation Xrotation Yrotation
                                    JOINT RightFinger32
                                    {
                                        OFFSET  -2.323470   0.000000   0.000000
                                        CHANNELS 3 Zrotation Xrotation Yrotation
                                        End Site
                                        {
                                            OFFSET  -2.273050   0.000000   0.000000
                                        }
                                    }
                                }
                            }
                            JOINT RightFinger4
                            {
                                OFFSET  -7.435090   0.000000  -3.252850
                                CHANNELS 3 Zrotation Xrotation Yrotation
                                JOINT RightFinger41
                                {
                                    OFFSET  -3.717550   0.000000   0.000000
                                    CHANNELS 3 Zrotation Xrotation Yrotation
                                    JOINT RightFinger42
                                    {
                                        OFFSET  -1.858770   0.000000   0.000000
                                        CHANNELS 3 Zrotation Xrotation Yrotation
                                        End Site
                                        {
                                            OFFSET  -1.818440   0.000000   0.000000
                                        }
                                    }
                                }
                            }
                        }
                    }
                }
            }
        }
    }
    JOINT LeftHip
    {
        OFFSET   9.783010   0.000000   0.000000
        CHANNELS 3 Zrotation Xrotation Yrotation
        JOINT LeftKnee
        {
            OFFSET   0.000070 -41.789100   0.000028
            CHANNELS 3 Zrotation Xrotation Yrotation
            JOINT LeftAnkle
            {
                OFFSET   0.000087 -41.133200  -0.000100
                CHANNELS 3 Zrotation Xrotation Yrotation
                JOINT LeftToe
                {
                    OFFSET   0.000000  -6.358960  14.674500
                    CHANNELS 3 Zrotation Xrotation Yrotation
                    End Site
                    {
                        OFFSET   0.000000   0.000000   3.913200
                    }
                }
            }
        }
    }
    JOINT RightHip
    {
        OFFSET  -9.783020   0.000000   0.000000
        CHANNELS 3 Zrotation Xrotation Yrotation
        JOINT RightKnee
        {
            OFFSET   0.000044 -41.789100  -0.000870
            CHANNELS 3 Zrotation Xrotation Yrotation
            JOINT RightAnkle
            {
                OFFSET  -0.000090 -41.133200  -0.000245
                CHANNELS 3 Zrotation Xrotation Yrotation
                JOINT RightToe
                {
                    OFFSET   0.000000  -6.358960  14.674500
                    CHANNELS 3 Zrotation Xrotation Yrotation
                    End Site
                    {
                        OFFSET   0.000000   0.000000   3.913200
                    }
                }
            }
        }
    }
}
MOTION
Frames: 5
Frame Time:   0.016667
 -1.101820  89.961100   0.504510  -2.184560  -2.758710   2.748620   0.660145   3.250600  -0.874488   1.373310   6.490480  -1.790810   3.678140   0.461771  -0.035038   6.043820   0.924078   6.685470  -3.196490  -1.490370   4.062340 -70.261200  17.996800   0.095405  -4.710090  -6.514980 -16.560500  11.957100   8.834320  10.937400  37.411000  20.511100 -53.840200 -25.378000  -0.000716   0.001848  -7.688980   0.000392  -0.011861 -27.119000  10.067700 -18.841400 -23.558800   0.001188   0.005404 -16.491100  -0.009256   0.000913 -24.815800   5.641740 -11.984000 -25.409400  -0.001998   0.003377 -16.922600  -0.001353  -0.000091 -26.598400   3.876990  -7.690310 -26.859100   0.004196  -0.002847 -17.888200   0.000788  -0.000204 -26.916100   1.704530  -3.355950 -40.448900   0.005606   0.001787 -26.938900  -0.009563  -0.009234  13.394500   2.346270   6.303790  63.688000  13.372500  -1.052430   1.415350  -6.126440  16.632100 -19.285700 -23.279800  -1.884060 -35.215500  31.811200  70.901200  32.416000  -0.010607  -0.006430  11.206800  -0.006075  -0.009294  34.110700   0.468505   0.691622  27.911000  -0.008941   0.003593  19.537700   0.002579   0.003725  28.306600  -3.967720  -7.321490  36.846900  -0.000475   0.011963  24.540100  -0.005044   0.011700  28.446800  -3.985150  -7.312050  38.962500  -0.000137   0.003090  25.949000  -0.003208  -0.010977  32.941100  -5.911700  -9.033110  50.112200  -0.001013   0.000000  33.374800   0.002940   0.000358   4.820440   1.855740   2.199170   1.272920   2.610340  16.959500  -9.779010  -1.746810   1.375140  -0.000000   0.000000   0.000000   3.345860   2.442810  -9.544260  -1.122010   2.496370  -7.536800  -7.984820   0.833792   1.044040   0.000000   0.000000  -0.000000
 -1.105210  89.961000   0.515989  -2.183850  -2.759810   2.764590   0.653554   3.252070  -0.865490   1.359620   6.493650  -1.772430   3.682300   0.474277  -0.034971   6.050730   0.949327   6.703860  -3.196280  -1.490220   4.062350 -70.270700  17.996800   0.103500  -4.723290  -6.513800 -16.586900  11.942300   8.810100  10.919100  37.424500  20.520300 -53.848100 -25.356000  -0.000716   0.001852  -7.678000   0.000391  -0.011865 -27.104000  10.064100 -18.847900 -23.546400   0.001188   0.005404 -16.482400  -0.009259   0.000913 -24.858200   5.642030 -11.969900 -25.450700  -0.001999   0.003379 -16.950100  -0.001351  -0.000090 -26.587500   3.866150  -7.672620 -26.846900   0.004195  -0.002845 -17.880100   0.000786  -0.000208 -26.902100   1.706890  -3.361500 -40.428200   0.005616   0.001788 -26.925100  -0.009566  -0.009238  13.394200   2.351600   6.297760  63.660800  13.392300  -1.014040   1.416180  -6.129970  16.658100 -19.281000 -23.276600  -1.884490 -35.247400  31.846600  70.898400  32.416000  -0.010608  -0.006426  11.206800  -0.006074  -0.009297  34.084600   0.455947   0.673695  27.889600  -0.008936   0.003589  19.522700   0.002579   0.003721  28.300600  -3.990360  -7.364880  36.794300  -0.000476   0.011959  24.505100  -0.005050   0.011696  28.440500  -4.008220  -7.355220  38.934500  -0.000129   0.003088  25.930400  -0.003199  -0.011001  33.069900  -5.850610  -8.889990  50.285800  -0.001008  -0.000025  33.490400   0.002946   0.000358   4.819860   1.860930   2.199560   1.273480   2.607690  16.946200  -9.783660  -1.745500   1.373230  -0.000000   0.000000  -0.000000   3.344830   2.466090  -9.566850  -1.114010   2.469260  -7.555310  -7.992960   0.837472   1.065560   0.000000   0.000000   0.000000
 -1.111080  89.961000   0.535396  -2.182280  -2.765820   2.793470   0.641912   3.257680  -0.849434   1.335470   6.505270  -1.739660   3.691180   0.494084  -0.034879   6.065420   0.989158   6.730960  -3.196060  -1.490070   4.062360 -70.283800  17.996800   0.111595  -4.744900  -6.511970 -16.632600  11.913600   8.769840  10.900300  37.449200  20.543400 -53.863100 -25.322300  -0.000716   0.001860  -7.661160   0.000387  -0.011874 -27.078800  10.057500 -18.859100 -23.525400   0.001187   0.005403 -16.467800  -0.009266   0.000915 -24.916500   5.642420 -11.950400 -25.507500  -0.002001   0.003381 -16.988000  -0.001347  -0.000088 -26.567400   3.850160  -7.647870 -26.824900   0.004195  -0.002842 -17.865400   0.000782  -0.000211 -26.876600   1.711030  -3.371610 -40.390400   0.005637   0.001792 -26.900000  -0.009572  -0.009246  13.394100   2.356950   6.287690  63.618100  13.432400  -0.953161   1.415340  -6.135500  16.696600 -19.277400 -23.270100  -1.887720 -35.279300  31.882000  70.895600  32.416000  -0.010610  -0.006422  11.206800  -0.006070  -0.009301  34.058700   0.436641   0.645887  27.868200  -0.008926   0.003579  19.507700   0.002581   0.003709  28.292300  -4.021510  -7.424220  36.741800  -0.000478   0.011951  24.470000  -0.005066   0.011687  28.431800  -4.039920  -7.414270  38.906500  -0.000110   0.003084  25.911800  -0.003178  -0.011065  33.248000  -5.789440  -8.746920  50.536600  -0.000994  -0.000069  33.657400   0.002952   0.000357   4.819060   1.871840   2.199960   1.274430   2.605160  16.924600  -9.795120  -1.744210   1.366920  -0.000000   0.000000   0.000000   3.344860   2.511190  -9.598750  -1.102690   2.421750  -7.588320  -8.004720   0.845001   1.094950  -0.000000   0.000000   0.000000
 -1.116090  89.961000   0.551566  -2.179800  -2.779270   2.820730   0.631080   3.268880  -0.834301   1.313070   6.528000  -1.708850   3.702860   0.506612  -0.034851   6.084580   1.013940   6.747340  -3.197130  -1.490130   4.055790 -70.288300  18.001700   0.105445  -4.764330  -6.511290 -16.674900  11.882400   8.737310  10.899600  37.473600  20.583500 -53.877700 -25.304600  -0.000729   0.001867  -7.652290   0.000381  -0.011886 -27.054700  10.050200 -18.869900 -23.505100   0.001182   0.005402 -16.453600  -0.009276   0.000923 -24.933900   5.644070 -11.944500 -25.524800  -0.001993   0.003375 -16.999500  -0.001343  -0.000087 -26.543900   3.840380  -7.637330 -26.801100   0.004195  -0.002846 -17.849600   0.000775  -0.000208 -26.849100   1.715360  -3.382520 -40.349600   0.005665   0.001797 -26.872800  -0.009581  -0.009259  13.395600   2.345770   6.279630  63.590700  13.481200  -0.909926   1.407030  -6.139490  16.715300 -19.303900 -23.260700  -1.912630 -35.274100  31.879000  70.893800  32.421600  -0.010613  -0.006432  11.206700  -0.006059  -0.009283  34.068600   0.423353   0.624284  27.876200  -0.008912   0.003563  19.513300   0.002587   0.003689  28.289400  -4.032980  -7.444580  36.773900  -0.000480   0.011936  24.491400  -0.005088   0.011676  28.431100  -4.051050  -7.434600  38.942300  -0.000087   0.003081  25.935600  -0.003144  -0.011168  33.306900  -5.824560  -8.790840  50.633900  -0.000973  -0.000110  33.722200   0.002946   0.000332   4.819620   1.885260   2.198430   1.275040   2.611480  16.908300  -9.812190  -1.747160   1.355270   0.000000   0.000000   0.000000   3.348810   2.560820  -9.609150  -1.098690   2.378880  -7.620770  -8.008900   0.853991   1.104960   0.000000   0.000000  -0.000000
 -1.121530  89.961000   0.567938  -2.175600  -2.797940   2.851910   0.619720   3.283720  -0.818022   1.289590   6.558010  -1.675750   3.716010   0.520182  -0.034847   6.106220   1.040760   6.755060  -3.201290  -1.490490   4.042900 -70.288100  18.024000   0.089499  -4.778980  -6.515170 -16.715200  11.851500   8.706930  10.900700  37.498100  20.623600 -53.892400 -25.284200  -0.000743   0.001875  -7.642100   0.000370  -0.011902 -27.036900  10.044800 -18.877900 -23.490200   0.001173   0.005402 -16.443100  -0.009288   0.000936 -24.942600   5.646680 -11.941500 -25.533800  -0.001980   0.003370 -17.005500  -0.001339  -0.000086 -26.524500   3.835750  -7.633850 -26.780500   0.004194  -0.002849 -17.835800   0.000765  -0.000204 -26.824200   1.718700  -3.392380 -40.312800   0.005703   0.001804 -26.848300  -0.009592  -0.009275  13.398300   2.323530   6.271420  63.564500  13.535800  -0.872528   1.401900  -6.142560  16.731700 -19.329400 -23.253400  -1.934710 -35.265400  31.872200  70.892500  32.427300  -0.010616  -0.006443  11.206700  -0.006043  -0.009260  34.086600   0.414530   0.612564  27.890900  -0.008894   0.003542  19.523600   0.002596   0.003665  28.288900  -4.035930  -7.448990  36.826500  -0.000482   0.011917  24.526500  -0.005118   0.011663  28.434700  -4.054300  -7.439060  39.024500  -0.000059   0.003078  25.990300  -0.003102  -0.011300  33.365200  -5.874840  -8.835010  50.729100  -0.000947  -0.000158  33.785600   0.002935   0.000288   4.820640   1.901440   2.193800   1.274960   2.623810  16.892900  -9.833360  -1.752180   1.339940   0.000000   0.000000  -0.000000   3.354300   2.617360  -9.618800  -1.095420   2.333190  -7.652820  -8.013700   0.864583   1.107080  -0.000000   0.000000   0.000000
